<svg xmlns="http://www.w3.org/2000/svg" width="30" height="30" viewBox="0 0 30 30" version="1.1"><path d="M24.3,12.5L18.5,12c-0.5,0-0.6-0.1-0.7-0.5L15.4,6c-0.1-0.2-0.3-0.4-0.4-0.4c-0.1,0-0.3,0.1-0.4,0.4L12,11.5 c-0.2,0.3-0.3,0.4-0.7,0.4l-5.6,0.7c-0.5,0.1-0.7,0.4-0.3,0.8l4.4,4c0.2,0.2,0.2,0.3,0.2,0.6l-1.1,5.9c-0.1,0.5,0.2,0.7,0.7,0.5 l5-2.8c0.4-0.2,0.7-0.2,1,0l5,2.9c0.5,0.3,0.8,0.1,0.7-0.5L20.4,19c0.5-0.2,1-0.4,1.3-0.7l0,0l0,0h-0.1c-0.1,0-0.3,0.1-0.4,0.1 c0,0,0,0-0.1,0H21h-0.1l0,0c-0.2,0-0.4,0.1-0.6,0.1c-1.6,0.3-3.5,0.4-5.2,0.4c-0.9,0-1.6,0-2.5-0.1l0,0c-0.7-0.1-1.3-0.1-2-0.2 c-0.2,0,0-0.2,0-0.2l6.1-4.3c0,0,0.2-0.1,0-0.1c-2.5-0.4-5.2-0.5-7.8-0.5c-0.1,0-0.1,0-0.2,0c1.7-0.4,4-0.7,6.3-0.7 c1.4,0,2.7,0.1,4,0.2c0,0,0.7,0.1,1,0.2c0.3,0,0,0.2,0,0.2l-6.2,4.3c0,0-0.1,0.1,0,0.1c1.9,0.3,4.2,0.4,6.1,0.4l0,0 c0-0.5,0-0.5,0-0.5c0-0.3,0-0.4,0.2-0.6l4.3-4C24.9,12.9,24.8,12.6,24.3,12.5z"></path></svg>