<svg xmlns="http://www.w3.org/2000/svg" width="30" height="30" viewBox="0 0 30 30" version="1.1"><g><path d="M24.005,14.742c-0.551-0.768-1.279-1.382-2.185-1.841c-0.906-0.458-1.875-0.688-2.907-0.688 c-1.078,0.034-2.07,0.264-2.976,0.688c-0.906,0.424-1.623,1.032-2.151,1.824c-0.528,0.791-0.791,1.64-0.791,2.546 s0.264,1.748,0.791,2.529c0.528,0.779,1.245,1.393,2.151,1.841c0.906,0.447,1.898,0.671,2.976,0.671 c0.435,0,1.136-0.114,2.098-0.344L22.922,23l-0.534-1.737c0.757-0.562,1.353-1.182,1.79-1.858c0.435-0.677,0.654-1.387,0.654-2.134 C24.832,16.353,24.556,15.511,24.005,14.742z M17.624,16.187c-0.161,0.137-0.367,0.207-0.619,0.207 c-0.173-0.011-0.333-0.086-0.481-0.224c-0.149-0.137-0.224-0.298-0.224-0.481c0.011-0.16,0.086-0.315,0.224-0.464 C16.66,15.074,16.82,15,17.004,15c0.253-0.011,0.458,0.057,0.619,0.207c0.161,0.149,0.241,0.31,0.241,0.481 C17.864,15.883,17.784,16.049,17.624,16.187z M21.442,16.187c-0.161,0.137-0.367,0.207-0.619,0.207 c-0.16-0.011-0.315-0.086-0.464-0.224c-0.149-0.137-0.224-0.298-0.224-0.481c0.011-0.16,0.086-0.315,0.224-0.464 C20.496,15.074,20.651,15,20.824,15c0.241-0.011,0.447,0.057,0.619,0.207c0.173,0.149,0.258,0.31,0.258,0.481 C21.689,15.883,21.603,16.049,21.442,16.187z"></path><path d="M13.339,14.587c0.528-0.849,1.245-1.52,2.151-2.012c0.906-0.494,1.898-0.739,2.976-0.739c0.253,0,0.475,0.017,0.671,0.051 c-0.195-0.918-0.631-1.754-1.307-2.512c-0.677-0.757-1.514-1.342-2.512-1.754C14.32,7.207,13.26,7,12.136,7 c-1.25-0.011-2.415,0.247-3.492,0.775C7.565,8.302,6.717,9.02,6.098,9.925c-0.619,0.906-0.929,1.898-0.929,2.976 c0,1.835,0.929,3.407,2.787,4.714l-0.688,2.082l2.426-1.205c0.057,0,0.218,0.029,0.481,0.086c0.264,0.057,0.435,0.091,0.517,0.103 c0.08,0.011,0.224,0.034,0.43,0.069c0.207,0.034,0.384,0.057,0.534,0.069c0.149,0.011,0.31,0.017,0.481,0.017 c0.207,0,0.424-0.011,0.654-0.034c-0.149-0.47-0.224-0.958-0.224-1.463C12.554,16.353,12.813,15.435,13.339,14.587z M14.01,10.2 c0.207-0.173,0.447-0.258,0.722-0.258c0.264,0,0.475,0.08,0.637,0.241c0.161,0.161,0.241,0.373,0.241,0.637 c0,0.275-0.08,0.487-0.241,0.637c-0.161,0.149-0.373,0.224-0.637,0.224c-0.275,0-0.517-0.08-0.722-0.241 c-0.207-0.161-0.31-0.367-0.31-0.619C13.701,10.578,13.805,10.373,14.01,10.2z M10.502,11.456 c-0.161,0.149-0.373,0.224-0.637,0.224S9.36,11.6,9.143,11.439c-0.218-0.161-0.327-0.367-0.327-0.619 c0.011-0.241,0.12-0.447,0.327-0.619C9.35,10.028,9.59,9.942,9.865,9.942c0.264,0,0.475,0.08,0.637,0.241 c0.161,0.161,0.241,0.373,0.241,0.637C10.742,11.095,10.662,11.308,10.502,11.456z"></path></g></svg>