<svg xmlns="http://www.w3.org/2000/svg" width="30" height="30" viewBox="0 0 30 30" version="1.1"><g><path d="M13.765,16.732c-0.786-0.2-1.566-0.13-2.341,0.211c-0.775,0.341-1.337,0.856-1.685,1.546 c-0.348,0.705-0.372,1.4-0.073,2.085c0.3,0.685,0.846,1.154,1.64,1.406c0.824,0.267,1.654,0.222,2.491-0.134 c0.837-0.356,1.422-0.912,1.756-1.668l0.003,0.001c0.333-0.741,0.324-1.447-0.028-2.118C15.175,17.39,14.588,16.947,13.765,16.732z M12.572,20.333h-0.001c-0.163,0.251-0.395,0.427-0.695,0.528c-0.3,0.101-0.576,0.091-0.828-0.028 c-0.252-0.12-0.412-0.307-0.478-0.562c-0.066-0.255-0.018-0.509,0.145-0.761c0.157-0.245,0.379-0.415,0.668-0.511 c0.288-0.096,0.559-0.092,0.811,0.011c0.26,0.112,0.427,0.297,0.501,0.556C12.769,19.825,12.728,20.08,12.572,20.333z M13.619,18.988c-0.051,0.097-0.133,0.166-0.245,0.206c-0.112,0.041-0.22,0.043-0.323,0.006c-0.223-0.104-0.271-0.271-0.145-0.501 c0.051-0.097,0.131-0.166,0.239-0.206c0.108-0.041,0.214-0.043,0.317-0.006c0.097,0.038,0.162,0.107,0.195,0.206 C13.69,18.793,13.677,18.891,13.619,18.988z"></path><path d="M24.888,12.166c-0.189-0.937-0.606-1.762-1.251-2.474l0.001,0.001c-0.645-0.719-1.416-1.218-2.313-1.496 c-0.897-0.278-1.801-0.321-2.713-0.128c-0.208,0.045-0.369,0.154-0.484,0.327c-0.115,0.174-0.15,0.364-0.105,0.572 c0.045,0.208,0.156,0.369,0.333,0.484c0.177,0.115,0.37,0.15,0.578,0.105c0.645-0.134,1.287-0.102,1.924,0.094 c0.638,0.196,1.186,0.55,1.645,1.062c0.459,0.504,0.756,1.089,0.89,1.756c0.134,0.667,0.097,1.305-0.111,1.913 c-0.06,0.199-0.041,0.392,0.056,0.578c0.097,0.186,0.245,0.312,0.444,0.379c0.199,0.066,0.392,0.052,0.578-0.044 s0.312-0.244,0.379-0.444C25.027,13.999,25.077,13.103,24.888,12.166z"></path><path d="M20.957,14.113c0.082,0.159,0.208,0.269,0.379,0.327c0.171,0.052,0.336,0.037,0.495-0.044 c0.159-0.082,0.269-0.208,0.327-0.379c0.141-0.415,0.166-0.85,0.073-1.307c-0.093-0.456-0.295-0.859-0.606-1.207v0.003 c-0.311-0.348-0.686-0.591-1.123-0.729c-0.437-0.138-0.879-0.158-1.324-0.061c-0.178,0.036-0.315,0.13-0.411,0.283 c-0.096,0.153-0.125,0.318-0.088,0.495c0.028,0.178,0.121,0.315,0.278,0.411s0.324,0.125,0.501,0.088 c0.468-0.097,0.864,0.033,1.19,0.389c0.325,0.356,0.414,0.767,0.266,1.234C20.861,13.789,20.875,13.954,20.957,14.113z"></path><path d="M21.179,16.239c-0.342-0.214-0.723-0.389-1.146-0.522c-0.088-0.03-0.151-0.053-0.189-0.067 c-0.038-0.014-0.083-0.042-0.134-0.084c-0.051-0.042-0.068-0.088-0.05-0.139c0.018-0.051,0.035-0.125,0.05-0.222 c0.334-0.853,0.334-1.513,0-1.98c-0.341-0.453-0.908-0.679-1.701-0.679c-0.793,0-1.705,0.219-2.736,0.656l-0.067,0.023 c-0.045,0.014-0.094,0.027-0.149,0.038c-0.055,0.011-0.109,0.013-0.161,0.006c-0.052-0.008-0.089-0.034-0.111-0.078 c-0.022-0.045-0.018-0.119,0.011-0.222c0.334-1.075,0.26-1.85-0.222-2.324c-0.548-0.549-1.462-0.575-2.741-0.078 c-1.279,0.497-2.545,1.372-3.797,2.624C7.088,14.14,6.356,15.096,5.84,16.06c-0.515,0.964-0.773,1.872-0.773,2.724 c-0.001,0.8,0.24,1.539,0.723,2.219c0.483,0.679,1.119,1.239,1.907,1.679c0.788,0.44,1.68,0.785,2.674,1.035 c0.994,0.25,2.013,0.374,3.057,0.373s2.046-0.116,3.007-0.344c0.961-0.229,1.799-0.536,2.513-0.922 c0.714-0.386,1.339-0.822,1.873-1.307c0.534-0.485,0.938-0.992,1.213-1.523c0.274-0.53,0.411-1.048,0.411-1.551l0-0.001 c-0.001-0.473-0.127-0.905-0.379-1.295C21.817,16.756,21.521,16.454,21.179,16.239z M17.55,21.339 c-1.086,0.878-2.456,1.402-4.109,1.573c-1.083,0.104-2.1,0.027-3.053-0.233c-0.953-0.26-1.725-0.664-2.318-1.213 c-0.593-0.548-0.923-1.178-0.989-1.89c-0.104-1.083,0.387-2.063,1.473-2.94c1.086-0.878,2.456-1.402,4.109-1.573 c1.083-0.104,2.1-0.027,3.053,0.233c0.953,0.26,1.725,0.664,2.318,1.213c0.593,0.548,0.923,1.178,0.989,1.89 C19.127,19.481,18.636,20.461,17.55,21.339z"></path></g></svg>