<svg xmlns="http://www.w3.org/2000/svg" width="30" height="30" viewBox="0 0 30 30" version="1.1"><path d="M13.496,16.185c0.831,0.838,2.178,0.838,3.008,0l6.629-5.972c0.01,0.069,0.021,0.138,0.021,0.21v7.439v2.146 c0,0.79-0.635,1.431-1.418,1.431l-13.472,0c-0.783,0-1.418-0.64-1.418-1.431v-3.576v-6.008c0-0.072,0.011-0.141,0.021-0.21 L13.496,16.185z M22.334,8.7l-6.413,5.754c-0.707,0.713-1.145,0.713-1.852,0L7.66,8.704c0.184-0.088,0.387-0.141,0.604-0.141h13.472 C21.95,8.563,22.152,8.614,22.334,8.7z"></path></svg>