<svg xmlns="http://www.w3.org/2000/svg" width="30" height="30" viewBox="0 0 30 30" version="1.1"><path d="M16.5,18.1c-0.2-0.2-0.5-0.2-0.6,0l-2.5,2.5c-0.5,0.5-1.2,0.8-1.9,0.8c-0.7,0-1.5-0.3-2-0.8c-1.1-1.1-1.1-2.9,0-4l2.5-2.5 c0.2-0.2,0.2-0.5,0-0.6l-0.8-0.8c-0.2-0.2-0.5-0.2-0.6,0L8,15.1C7,16,6.5,17.3,6.5,18.6C6.5,19.9,7,21.1,8,22c1,1,2.2,1.4,3.5,1.4 c1.3,0,2.5-0.5,3.5-1.4l2.5-2.5c0.2-0.2,0.2-0.5,0-0.6L16.5,18.1z"></path><path d="M22,8L22,8L22,8c-1.9-1.9-5-1.9-6.9,0l-2.5,2.5c-0.2,0.2-0.2,0.5,0,0.6l0.8,0.8c0.2,0.2,0.5,0.2,0.6,0l2.5-2.5 c0.5-0.5,1.2-0.8,1.9-0.8c0,0,0,0,0.1,0c0.7,0,1.4,0.3,2,0.8c0.5,0.5,0.8,1.3,0.8,2c0,0.7-0.3,1.4-0.8,1.9l-2.5,2.5 c-0.2,0.2-0.2,0.5,0,0.6l0.8,0.8c0.1,0.1,0.2,0.1,0.3,0.1c0.1,0,0.2,0,0.3-0.1l2.5-2.5C23.9,13,23.9,9.9,22,8z"></path><path d="M11.8,17.3l0.8,0.8c0.1,0.1,0.2,0.1,0.3,0.1c0.1,0,0.2,0,0.3-0.1l4.8-4.8c0.2-0.2,0.2-0.5,0-0.6l-0.8-0.8l-0.1-0.1 c-0.1,0-0.4-0.1-0.5,0.1l-4.8,4.8C11.7,16.8,11.7,17.1,11.8,17.3z"></path></svg>